<svg width="640" height="520" viewBox="0 0 640 520" fill="none" xmlns="http://www.w3.org/2000/svg">
  <rect width="640" height="520" rx="48" fill="#F5F7FA"/>
  <rect x="72" y="96" width="496" height="328" rx="24" fill="white" stroke="#DCE3EE" stroke-width="2"/>
  <rect x="112" y="140" width="220" height="24" rx="12" fill="#1D3557" opacity="0.9"/>
  <rect x="112" y="180" width="160" height="16" rx="8" fill="#93A4BF"/>
  <rect x="112" y="218" width="416" height="12" rx="6" fill="#E4EAF2"/>
  <rect x="112" y="246" width="372" height="12" rx="6" fill="#E4EAF2"/>
  <rect x="112" y="274" width="316" height="12" rx="6" fill="#E4EAF2"/>
  <rect x="112" y="310" width="180" height="36" rx="18" fill="#E37400"/>
  <rect x="340" y="310" width="140" height="36" rx="18" fill="#1D3557" opacity="0.15"/>
  <circle cx="492" cy="152" r="36" fill="#EAF1FA" stroke="#1D3557" stroke-width="2"/>
  <path d="M476 152H508" stroke="#1D3557" stroke-width="2" stroke-linecap="round"/>
  <path d="M492 136V168" stroke="#1D3557" stroke-width="2" stroke-linecap="round"/>
  <rect x="140" y="356" width="360" height="36" rx="18" fill="#2E7D32" opacity="0.2"/>
  <rect x="160" y="366" width="160" height="16" rx="8" fill="#2E7D32"/>
</svg>
